<svg xmlns="http://www.w3.org/2000/svg" viewBox="0 0 24 24" role="img" aria-label="Sparkle">
  <!-- Light plate so black sparkles read on dark browser chrome (tabs/toolbars). -->
  <rect width="24" height="24" rx="5" fill="#fff" stroke="#e8e8e8" stroke-width="0.5" />
  <path
    fill="#000"
    d="M11.017 2.814a1 1 0 0 1 1.966 0l1.051 5.558a2 2 0 0 0 1.594 1.594l5.558 1.051a1 1 0 0 1 0 1.966l-5.558 1.051a2 2 0 0 0-1.594 1.594l-1.051 5.558a1 1 0 0 1-1.966 0l-1.051-5.558a2 2 0 0 0-1.594-1.594l-5.558-1.051a1 1 0 0 1 0-1.966l5.558-1.051a2 2 0 0 0 1.594-1.594z"
  />
  <rect x="19" y="1" width="2" height="6" rx="0.4" fill="#000" />
  <rect x="17" y="3" width="6" height="2" rx="0.4" fill="#000" />
  <circle cx="4" cy="20" r="2" fill="#000" />
</svg>
